# AST/ASF file generated using VICON BodyLanguage
# -----------------------------------------------
:version 1.10
:name VICON
:units
  mass 1.0
  length 0.45
  angle deg
:documentation
   .ast/.asf automatically generated from VICON data using
   VICON BodyBuilder and BodyLanguage model FoxedUp or BRILLIANT.MOD
:root
   order TX TY TZ RX RY RZ
   axis XYZ
   position 0 0 0  
   orientation 0 0 0 
:bonedata
  begin
     id 1 
     name lhipjoint
     direction 0.690799 -0.707083 0.151096 
     length 2.54797 
     axis 0 0 0  XYZ
  end
  begin
     id 2 
     name lfemur
     direction 0.34202 -0.939693 0  
     length 7.21646  
     axis 0 0 20  XYZ
    dof rx ry rz
    limits (-160.0 20.0)
           (-70.0 70.0)
           (-60.0 70.0)
  end
  begin
     id 3 
     name ltibia
     direction 0.34202 -0.939693 0   
     length 8.16759   
     axis 0 0 20   XYZ
    dof rx
    limits (-10.0 170.0)
  end
  begin
     id 4 
     name lfoot
     direction 0.0487203 -0.133858 0.989802   
     length 1.93375   
     axis -90 7.62852e-016 20   XYZ
    dof rx rz
    limits (-45.0 90.0)
           (-70.0 20.0)
  end
  begin
     id 5 
     name ltoes
     direction 1.53453e-011 -4.21783e-011 1   
     length 0.979747   
     axis -90 7.62852e-016 20   XYZ
    dof rx
    limits (-90.0 20.0)
  end
  begin
     id 6 
     name rhipjoint
     direction -0.694693 -0.703425 0.150315   
     length 2.56122  
     axis 0 0 0  XYZ 
  end
  begin
     id 7 
     name rfemur
     direction -0.34202 -0.939693 0   
     length 7.36786   
     axis 0 0 -20   XYZ
    dof rx ry rz
    limits (-160.0 20.0)
           (-70.0 70.0)
           (-70.0 60.0)
  end
  begin
     id 8 
     name rtibia
     direction -0.34202 -0.939693 0   
     length 8.07288   
     axis 0 0 -20   XYZ
    dof rx
    limits (-10.0 170.0)
 end
 begin
     id 9 
     name rfoot
     direction -0.0428397 -0.117701 0.992125   
     length 1.88295  
     axis -90 -7.62852e-016 -20   XYZ
    dof rx rz
    limits (-45.0 90.0)
           (-20.0 70.0)
  end
  begin
     id 10 
     name rtoes
     direction -1.53456e-011 -4.2187e-011 1   
     length 0.955578   
     axis -90 -7.62852e-016 -20   XYZ
    dof rx
    limits (-90.0 20.0)
  end
  begin
     id 11 
     name lowerback
     direction 0.0288145 0.999398 -0.0193241   
     length 1.92149   
     axis 0 0 0   XYZ
    dof rx ry rz
    limits (-20.0 45.0)
           (-30.0 30.0)
           (-30.0 30.0)
  end
  begin
     id 12 
     name upperback
     direction 0.0233784 0.998099 0.0570278   
     length 1.90435   
     axis 0 0 0   XYZ
    dof rx ry rz
    limits (-20.0 45.0)
           (-30.0 30.0)
           (-30.0 30.0)
  end
  begin
     id 13 
     name thorax
     direction 0.0096694 0.997833 0.0650817   
     length 1.9111   
     axis 0 0 0   XYZ
    dof rx ry rz
    limits (-20.0 45.0)
           (-30.0 30.0)
           (-30.0 30.0)
  end
  begin
     id 14 
     name lowerneck
     direction 0.00516803 0.999916 0.0118722   
     length 1.74664   
     axis 0 0 0   XYZ
    dof rx ry rz
    limits (-20.0 45.0)
           (-30.0 30.0)
           (-30.0 30.0)
  end
  begin
     id 15 
     name upperneck
     direction -0.0510851 0.996117 -0.071696   
     length 1.68498   
     axis 0 0 0   XYZ
    dof rx ry rz
    limits (-20.0 45.0)
           (-30.0 30.0)
           (-30.0 30.0)
  end
  begin
     id 16
     name head
     direction -0.019188 0.999436 -0.0275702  
     length 1.83483  
     axis 0 0 0   XYZ
    dof rx ry rz
    limits (-20.0 45.0)
           (-30.0 30.0)
           (-30.0 30.0)
  end
  begin
     id 17 
     name lclavicle
     direction 0.967006 0.248456 -0.0562957  
     length 3.39395  
     axis 0 0 0   XYZ
    dof ry rz
    limits (-20.0 10.0)
           (0.0 20.0)
  end
  begin
     id 18 
     name lhumerus
     direction 1 -4.48962e-011 -5.62711e-019   
     length 5.24318   
     axis 180 -30 -90   XYZ
    dof rx ry rz
    limits (-60.0 90.0)
           (-90.0 90.0)
           (-90.0 90.0)
  end
  begin
     id 19
     name lradius
     direction 1 -4.48966e-011 7.90625e-027   
     length 2.98999   
     axis 180 -30 -90   XYZ
    dof rx
    limits (-10.0 170.0)
  end
  begin
     id 20
     name lwrist
     direction 1 -4.48959e-011 1.61068e-026   
     length 1.49499   
     axis -9.31229e-015 90 90   XYZ
    dof ry
    limits (-180.0 0.0)
 end
  begin
     id 21 
     name lhand
     direction 1 -4.49017e-011 3.22136e-026   
     length 0.726745   
     axis -2.0555e-014 90 90   XYZ
    dof rx rz
    limits (-90.0 90.0)
           (-45.0 45.0)
  end
  begin
     id 22 
     name lfingers
     direction 1 -4.4898e-011 6.44272e-026   
     length 0.58592   
     axis -4.11101e-014 90 90   XYZ
    dof rx
    limits (0.0 90.0)
  end
  begin
     id 23
     name lthumb
     direction 0.707107 -6.34922e-011 0.707107   
     length 0.841268   
     axis -90 45 2.85299e-015   XYZ
    dof rx rz
    limits (-45.0 45.0)
           (-45.0 45.0)
  end
  begin
     id 24 
     name rclavicle
     direction -0.972232 0.230238 0.0419005   
     length 3.40416  
     axis 0 0 0   XYZ 
    dof ry rz
    limits (-10.0 20.0)
           (-20.0 0.0)
  end
  begin
     id 25 
     name rhumerus
     direction -1 -4.48976e-011 2.48487e-027  
     length 5.37045   
     axis 180 30 90   XYZ
    dof rx ry rz
    limits (-90.0 60.0)
           (-90.0 90.0)
           (-90.0 90.0)
  end
  begin
     id 26 
     name rradius
     direction -1 -4.48942e-011 7.87951e-027   
     length 2.92792   
     axis 180 30 90   XYZ
    dof rx
    limits (-10.0 170.0)
  end
  begin
     id 27 
     name rwrist
     direction -1 -4.48969e-011 1.61068e-026   
     length 1.46396   
     axis -9.31229e-015 -90 -90   XYZ
    dof ry
    limits (-180.0 0.0)
  end
  begin
     id 28
     name rhand
     direction -1 -4.49043e-011 3.22136e-026   
     length 0.784497   
     axis -2.0555e-014 -90 -90   XYZ
    dof rx rz
    limits (-90.0 90.0)
           (-45.0 45.0)
  end
  begin
     id 29
     name rfingers
     direction -1 -4.48823e-011 6.44272e-026   
     length 0.632482   
     axis -4.11101e-014 -90 -90   XYZ
    dof rx
    limits (0.0 90.0)
  end
  begin
     id 30
     name rthumb
     direction -0.707107 -6.34923e-011 0.707107   
     length 0.908121   
     axis -90 -45 -2.85299e-015   XYZ
    dof rx rz
    limits (-45.0 45.0)
           (-45.0 45.0)
  end
:hierarchy
  begin
    root lhipjoint rhipjoint lowerback
    lhipjoint lfemur
    lfemur ltibia
    ltibia lfoot
    lfoot ltoes
    rhipjoint rfemur
    rfemur rtibia
    rtibia rfoot
    rfoot rtoes
    lowerback upperback
    upperback thorax
    thorax lowerneck lclavicle rclavicle
    lowerneck upperneck
    upperneck head
    lclavicle lhumerus
    lhumerus lradius
    lradius lwrist
    lwrist lhand lthumb
    lhand lfingers
    rclavicle rhumerus
    rhumerus rradius
    rradius rwrist
    rwrist rhand rthumb
    rhand rfingers
  end

#!OML:ASF E:\Style6\Style6.ASF
:FULLY-SPECIFIED
:DEGREES
511
root 0.439876 16.386 0.902661 -15.9641 -3.0248 1.05655
lowerback 9.20988 0.442429 1.53927
upperback 12.5717 0.606086 0.399443
thorax 8.16318 0.40979 -0.447457
lowerneck 2.58117 -2.23644 2.34482
upperneck -10.0591 -3.57975 -7.14068
head -3.97409 -1.57302 -2.67293
rclavicle -1.54058e-014 -2.78299e-015
rhumerus -83.1327 33.1803 -113.788
rradius 103.533
rwrist -69.2068
rhand -13.3456 -8.80137
rfingers 7.12502
rthumb 12.76 -38.3915
lclavicle -1.54058e-014 -2.78299e-015
lhumerus -90.8459 -46.8941 128.411
lradius 103.406
lwrist 100.043
lhand -1.68 32.4334
lfingers 7.12502
lthumb 23.9803 60.9557
rfemur -6.89146 -8.39719 12.9017
rtibia 55.6002
rfoot -24.5962 -1.21753
rtoes -21.6719
lfemur -2.9533 9.74829 -15.1507
ltibia 53.9656
lfoot -25.8466 3.90398
ltoes -28.3113
512
root 0.442878 16.3882 0.903077 -15.9332 -3.11177 1.02261
lowerback 9.19218 0.4351 1.61453
upperback 12.5836 0.595472 0.439538
thorax 8.18733 0.408729 -0.44646
lowerneck 2.52456 -2.28805 2.31267
upperneck -10.039 -3.65613 -7.19131
head -3.96111 -1.60914 -2.68111
rclavicle -1.63003e-014 -1.27222e-014
rhumerus -83.2915 33.2985 -113.805
rradius 103.396
rwrist -68.9672
rhand -13.1486 -8.73255
rfingers 7.12502
rthumb 12.95 -38.3107
lclavicle -1.63003e-014 -1.27222e-014
lhumerus -91.1945 -47.1051 128.777
lradius 103.594
lwrist 99.8823
lhand -1.96569 32.8533
lfingers 7.12502
lthumb 23.7063 61.4113
rfemur -6.93143 -8.34606 12.9624
rtibia 55.5902
rfoot -24.5949 -1.33316
rtoes -22.3949
lfemur -2.96151 9.79148 -15.1075
ltibia 53.9561
lfoot -25.858 3.82024
ltoes -27.9437
513
root 0.446941 16.3897 0.901974 -15.8963 -3.13348 1.16759
lowerback 9.17016 0.417409 1.4899
upperback 12.5861 0.566065 0.443495
thorax 8.19974 0.382778 -0.372104
lowerneck 2.54411 -2.30513 2.26773
upperneck -10.1157 -3.69503 -7.26843
head -3.99592 -1.62202 -2.69901
rclavicle -3.18055e-015 -1.31198e-014
rhumerus -83.4598 33.4601 -113.76
rradius 103.214
rwrist -68.5479
rhand -12.7675 -8.62755
rfingers 7.12502
rthumb 13.3173 -38.182
lclavicle -3.18055e-015 -1.31198e-014
lhumerus -91.4531 -47.2189 129.064
lradius 103.776
lwrist 99.5581
lhand -2.34917 32.7998
lfingers 7.12502
lthumb 23.3385 61.405
rfemur -7.01118 -8.34838 12.7835
rtibia 55.609
rfoot -24.5533 -1.41965
rtoes -22.9928
lfemur -2.98488 9.84591 -15.29
ltibia 53.9225
lfoot -25.8277 3.84146
ltoes -27.8821
514
root 0.451195 16.391 0.899818 -15.8414 -3.18483 1.29365
lowerback 9.16595 0.404428 1.4297
upperback 12.5626 0.547591 0.417015
thorax 8.17435 0.369265 -0.366494
lowerneck 2.56362 -2.31294 2.24064
upperneck -10.1662 -3.712 -7.2808
head -4.01837 -1.62773 -2.69817
rclavicle -1.07344e-014 -1.31198e-014
rhumerus -83.4955 33.5177 -113.607
rradius 103.001
rwrist -68.106
rhand -12.3526 -8.40696
rfingers 7.12502
rthumb 13.7172 -37.9348
lclavicle -1.07344e-014 -1.31198e-014
lhumerus -91.7497 -47.3093 129.326
lradius 103.903
lwrist 99.3585
lhand -2.81338 32.4138
lfingers 7.12502
lthumb 22.8931 61.0749
rfemur -7.12566 -8.29832 12.6343
rtibia 55.6532
rfoot -24.5604 -1.09935
rtoes -21.8515
lfemur -3.01716 9.91167 -15.4515
ltibia 53.876
lfoot -25.7993 3.81152
ltoes -27.7207
515
root 0.455173 16.3917 0.89712 -15.756 -3.17639 1.4341
lowerback 9.15362 0.380871 1.34878
upperback 12.5392 0.514656 0.385996
thorax 8.1531 0.347125 -0.353773
lowerneck 2.48658 -2.33529 2.15488
upperneck -10.1375 -3.74064 -7.22613
head -3.99025 -1.64291 -2.66154
rclavicle 4.37326e-015 1.07344e-014
rhumerus -83.4366 33.5857 -113.348
rradius 102.904
rwrist -67.9522
rhand -12.0955 -8.17754
rfingers 7.12502
rthumb 13.965 -37.6885
lclavicle 4.37326e-015 1.07344e-014
lhumerus -91.9729 -47.4673 129.551
lradius 104
lwrist 99.3898
lhand -3.20515 32.244
lfingers 7.12502
lthumb 22.5171 60.9511
rfemur -7.26382 -8.32979 12.4515
rtibia 55.7118
rfoot -24.587 -0.79267
rtoes -20.8836
lfemur -3.10177 9.92378 -15.6527
ltibia 53.825
lfoot -25.7709 3.75313
ltoes -27.4011
516
root 0.458754 16.3905 0.894484 -15.6573 -3.12982 1.70981
lowerback 9.11006 0.371782 1.0899
upperback 12.5149 0.495145 0.345128
thorax 8.14628 0.317011 -0.252275
lowerneck 2.44979 -2.37642 2.07776
upperneck -10.1502 -3.7983 -7.18644
head -3.98718 -1.6707 -2.63097
rclavicle 4.17448e-015 -7.55382e-015
rhumerus -83.3507 33.6698 -113.028
rradius 102.872
rwrist -67.9989
rhand -11.6438 -8.41619
rfingers 7.12502
rthumb 14.4003 -37.8967
lclavicle 4.17448e-015 -7.55382e-015
lhumerus -92.05 -47.5913 129.695
lradius 104.076
lwrist 99.4649
lhand -3.56144 32.4639
lfingers 7.12502
lthumb 22.175 61.212
rfemur -7.43179 -8.39211 12.1071
rtibia 55.7761
rfoot -24.5934 -0.66716
rtoes -20.6284
lfemur -3.21114 9.92324 -16.0248
ltibia 53.7724
lfoot -25.7543 3.69101
ltoes -26.9471
517
root 0.463358 16.3917 0.893796 -15.6166 -3.14153 1.80693
lowerback 9.11959 0.354497 1.05433
upperback 12.4999 0.471141 0.336366
thorax 8.12322 0.302144 -0.241502
lowerneck 2.54212 -2.4249 2.04372
upperneck -10.2559 -3.86831 -7.13918
head -4.04428 -1.7024 -2.60598
rclavicle 4.07509e-015 1.98785e-015
rhumerus -83.3244 33.6928 -112.798
rradius 102.882
rwrist -67.9993
rhand -11.1955 -8.70631
rfingers 7.12502
rthumb 14.8321 -38.1555
lclavicle 4.07509e-015 1.98785e-015
lhumerus -92.1663 -47.6988 129.831
lradius 104.223
lwrist 99.646
lhand -4.0342 32.7948
lfingers 7.12502
lthumb 21.7211 61.5961
rfemur -7.50721 -8.38536 11.9842
rtibia 55.7933
rfoot -24.5877 -0.732387
rtoes -21.1435
lfemur -3.24615 9.88195 -16.1965
ltibia 53.7425
lfoot -25.6996 3.85387
ltoes -27.1877
518
root 0.467681 16.394 0.894045 -15.5962 -3.21709 1.70871
lowerback 9.14212 0.335112 1.22541
upperback 12.5064 0.448628 0.375998
thorax 8.11948 0.30327 -0.294619
lowerneck 2.60454 -2.46803 2.11596
upperneck -10.367 -3.9352 -7.19244
head -4.10429 -1.73312 -2.63623
rclavicle -3.97569e-016 -1.98785e-015
rhumerus -83.3033 33.7033 -112.616
rradius 102.92
rwrist -68.0078
rhand -10.9824 -8.68224
rfingers 7.12502
rthumb 15.0374 -38.1161
lclavicle -3.97569e-016 -1.98785e-015
lhumerus -92.2371 -47.8049 129.941
lradius 104.354
lwrist 99.8582
lhand -4.39159 32.9181
lfingers 7.12502
lthumb 21.3779 61.7588
rfemur -7.52721 -8.36698 12.1005
rtibia 55.7645
rfoot -24.556 -0.970717
rtoes -22.3769
lfemur -3.24923 9.87184 -16.1064
ltibia 53.744
lfoot -25.6857 3.88502
ltoes -27.1938
519
root 0.470068 16.3953 0.893048 -15.5905 -3.28728 1.58802
lowerback 9.19467 0.328789 1.40853
upperback 12.5253 0.444374 0.420779
thorax 8.11351 0.314422 -0.349442
lowerneck 2.62999 -2.51686 2.22215
upperneck -10.4808 -4.00888 -7.25533
head -4.16002 -1.76883 -2.67609
rclavicle -5.26779e-015 -1.66979e-014
rhumerus -83.2428 33.6853 -112.424
rradius 103.04
rwrist -67.7587
rhand -10.8634 -8.6232
rfingers 7.12502
rthumb 15.1521 -38.0485
lclavicle -5.26779e-015 -1.66979e-014
lhumerus -92.2655 -47.923 129.973
lradius 104.461
lwrist 99.9532
lhand -4.62981 33.306
lfingers 7.12502
lthumb 21.1491 62.1725
rfemur -7.50856 -8.33911 12.2475
rtibia 55.7048
rfoot -24.5219 -0.89979
rtoes -21.9615
lfemur -3.25421 9.90962 -15.9525
ltibia 53.7775
lfoot -25.7121 3.84499
ltoes -27.1014
520
root 0.471659 16.3963 0.891907 -15.6216 -3.38878 1.40999
lowerback 9.27204 0.314707 1.63263
upperback 12.5675 0.429451 0.498363
thorax 8.12022 0.322036 -0.392135
lowerneck 2.59696 -2.57637 2.2139
upperneck -10.5537 -4.09326 -7.23537
head -4.18363 -1.81062 -2.66465
rclavicle -6.85807e-015 -1.59028e-015
rhumerus -83.1467 33.7128 -112.153
rradius 103.222
rwrist -67.1474
rhand -10.3439 -8.64517
rfingers 7.12502
rthumb 15.6525 -38.032
lclavicle -6.85807e-015 -1.59028e-015
lhumerus -92.1256 -47.9997 129.833
lradius 104.591
lwrist 99.9349
lhand -4.88102 33.8674
lfingers 7.12502
lthumb 20.9077 62.7607
rfemur -7.44056 -8.26571 12.4693
rtibia 55.6395
rfoot -24.5168 -0.725402
rtoes -21.1631
lfemur -3.22598 9.97842 -15.7042
ltibia 53.8307
lfoot -25.7585 3.65995
ltoes -26.59
521
root 0.474043 16.3971 0.889337 -15.6456 -3.4494 1.29521
lowerback 9.35232 0.272417 1.77292
upperback 12.6087 0.37437 0.568186
thorax 8.12222 0.302633 -0.395505
lowerneck 2.55566 -2.61159 2.1554
upperneck -10.5808 -4.14594 -7.22418
head -4.18599 -1.83532 -2.64785
rclavicle 8.94531e-015 3.97569e-016
rhumerus -83.1123 33.787 -111.969
rradius 103.345
rwrist -66.2938
rhand -9.758 -8.64007
rfingers 7.12502
rthumb 16.2167 -37.9818
lclavicle 8.94531e-015 3.97569e-016
lhumerus -91.8034 -48.0662 129.583
lradius 104.647
lwrist 99.8506
lhand -5.42118 34.0693
lfingers 7.12502
lthumb 20.3887 63.019
rfemur -7.4182 -8.2525 12.5967
rtibia 55.6029
rfoot -24.4655 -0.580675
rtoes -20.6467
lfemur -3.21951 9.99998 -15.5628
ltibia 53.8747
lfoot -25.7851 3.69458
ltoes -26.7254
522
root 0.476949 16.3972 0.886567 -15.6229 -3.45546 1.26127
lowerback 9.40403 0.201627 1.8133
upperback 12.5848 0.27952 0.612592
thorax 8.06411 0.255341 -0.369551
lowerneck 2.70759 -2.62562 2.11564
upperneck -10.9632 -4.2161 -7.462
head -3.91146 -1.82766 -2.44196
rclavicle -1.98785e-016 0
rhumerus -83.2859 33.925 -112.008
rradius 103.352
rwrist -65.4587
rhand -9.63108 -8.94822
rfingers 7.12502
rthumb 16.3389 -38.2799
lclavicle -1.98785e-016 0
lhumerus -91.4927 -48.009 129.304
lradius 104.667
lwrist 99.6158
lhand -6.06299 34.4638
lfingers 7.12502
lthumb 19.7718 63.4782
rfemur -7.45279 -8.28727 12.6189
rtibia 55.5908
rfoot -24.4343 -0.619103
rtoes -20.8905
lfemur -3.25993 9.99896 -15.5418
ltibia 53.8924
lfoot -25.808 3.6559
ltoes -26.6351
523
root 0.478887 16.3965 0.883422 -15.5844 -3.44212 1.31406
lowerback 9.4443 0.125545 1.74392
upperback 12.5374 0.175052 0.630664
thorax 7.98458 0.194943 -0.310062
lowerneck 2.91259 -2.6239 2.10002
upperneck -11.047 -4.22741 -7.52218
head -3.97275 -1.82366 -2.45447
rclavicle -8.84592e-015 -3.57812e-015
rhumerus -83.3719 34.107 -111.925
rradius 103.46
rwrist -64.6035
rhand -9.47762 -9.39716
rfingers 7.12502
rthumb 16.4866 -38.7167
lclavicle -8.84592e-015 -3.57812e-015
lhumerus -91.1325 -47.8432 128.897
lradius 104.705
lwrist 99.1791
lhand -6.46218 35.4402
lfingers 7.12502
lthumb 19.388 64.4937
rfemur -7.52155 -8.32429 12.5444
rtibia 55.6036
rfoot -24.3932 -0.750047
rtoes -21.6459
lfemur -3.32131 10.0205 -15.6209
ltibia 53.8939
lfoot -25.7838 3.80161
ltoes -27.0087
524
root 0.478974 16.397 0.882373 -15.5969 -3.42885 1.41881
lowerback 9.47844 0.0745437 1.62589
upperback 12.5552 0.102295 0.625975
thorax 7.98307 0.148352 -0.247625
lowerneck 2.97042 -2.64005 2.05164
upperneck -11.0946 -4.25409 -7.50154
head -3.99694 -1.83377 -2.43808
rclavicle 1.39149e-015 1.27222e-014
rhumerus -83.1382 34.2053 -111.527
rradius 103.657
rwrist -63.7704
rhand -9.0801 -9.32262
rfingers 7.12502
rthumb 16.8693 -38.6099
lclavicle 1.39149e-015 1.27222e-014
lhumerus -90.6872 -47.7457 128.376
lradius 104.746
lwrist 98.5634
lhand -6.69054 36.3774
lfingers 7.12502
lthumb 19.1684 65.4528
rfemur -7.54202 -8.31036 12.4157
rtibia 55.6354
rfoot -24.3837 -0.574309
rtoes -20.8835
lfemur -3.30928 10.0225 -15.7483
ltibia 53.8733
lfoot -25.7653 3.91466
ltoes -27.3039
525
root 0.479896 16.3963 0.879708 -15.6289 -3.46747 1.41729
lowerback 9.51908 0.0407409 1.68746
upperback 12.6435 0.0585196 0.618931
thorax 8.06032 0.132589 -0.287971
lowerneck 2.83342 -2.69672 2.06265
upperneck -11.1089 -4.32537 -7.44245
head -3.98079 -1.87519 -2.42022
rclavicle 4.07509e-015 9.14409e-015
rhumerus -82.8133 34.2947 -111.241
rradius 103.822
rwrist -63.4851
rhand -9.38793 -9.26712
rfingers 7.12502
rthumb 16.573 -38.5794
lclavicle 4.07509e-015 9.14409e-015
lhumerus -90.2137 -47.8533 127.76
lradius 104.815
lwrist 97.9986
lhand -6.94493 37.0093
lfingers 7.12502
lthumb 18.9238 66.1087
rfemur -7.55723 -8.29282 12.4236
rtibia 55.6795
rfoot -24.3829 -0.701886
rtoes -21.4732
lfemur -3.27917 10.054 -15.7267
ltibia 53.8721
lfoot -25.7701 3.75277
ltoes -26.8261
